<svg xmlns="http://www.w3.org/2000/svg" width="100" height="100"><path d="M63.688 45.27l-18.033-8.967c-.277-.138-.832-.209-1.141-.209-2.583 0-5.015 2.09-5.015 4.562v19.211c0 2.473 2.432 4.562 5.015 4.562.308 0 .736-.071 1.011-.207l18.202-8.969c2.436-1.212 3.701-2.892 3.701-4.992.002-1.439-.624-3.475-3.74-4.991zm-1.674 6.401l-17.82 8.687c-.249-.109-.693-.323-.693-.49V40.656c0-.164.448-.378.694-.488l17.604 8.691c.963.469 1.601.993 1.601 1.402-.002.171.061.689-1.386 1.41z"/><path d="M87.5 29.526a9.026 9.026 0 00-9.026-9.026H22.526a9.026 9.026 0 00-9.026 9.026v40.947a9.026 9.026 0 009.026 9.026h55.947a9.026 9.026 0 009.026-9.026V29.526zm-4 40.948a5.026 5.026 0 01-5.026 5.026H22.526a5.026 5.026 0 01-5.026-5.026V29.526a5.026 5.026 0 015.026-5.026h55.947a5.026 5.026 0 015.026 5.026v40.948z"/></svg>